<svg id="Layer_1" data-name="Layer 1" xmlns="http://www.w3.org/2000/svg" viewBox="0 0 695.32 695.32"><defs><style>.cls-1{fill:#47a5ae;stroke:#231f20;stroke-miterlimit:2.61;stroke-width:0.22px;}.cls-1,.cls-2{fill-rule:evenodd;}.cls-2{fill:#56c5d0;}</style></defs><title>Seventies-Vector-Pattern</title><polygon class="cls-1" points="0.11 0.11 695.21 0.11 695.21 695.21 0.11 695.21 0.11 0.11 0.11 0.11"/><path class="cls-2" d="M313,721.69A24.14,24.14,0,1,1,313,770V721.69Z" transform="translate(-244.89 -75.89)"/><path class="cls-2" d="M276.75,671a24.14,24.14,0,0,0,0,48.28V671Z" transform="translate(-244.89 -75.89)"/><path class="cls-2" d="M282.4,671a12.07,12.07,0,1,0,24.14,0Z" transform="translate(-244.89 -75.89)"/><path class="cls-2" d="M282.4,770a12.07,12.07,0,0,1,24.14,0Z" transform="translate(-244.89 -75.89)"/><path class="cls-2" d="M245,732.57a12.07,12.07,0,1,0,0-24.14v24.14Z" transform="translate(-244.89 -75.89)"/><path class="cls-2" d="M343.95,732.57a12.07,12.07,0,1,1,0-24.14v24.14Z" transform="translate(-244.89 -75.89)"/><path class="cls-2" d="M296,702.39a24.14,24.14,0,1,1,48.28,0Z" transform="translate(-244.89 -75.89)"/><path class="cls-2" d="M245.38,738.61a24.14,24.14,0,1,0,48.28,0Z" transform="translate(-244.89 -75.89)"/><path class="cls-2" d="M294.66,710.92a9.59,9.59,0,1,1-9.59,9.58,9.59,9.59,0,0,1,9.59-9.58Z" transform="translate(-244.89 -75.89)"/><path class="cls-2" d="M412.26,721.69a24.14,24.14,0,1,1,0,48.28V721.69Z" transform="translate(-244.89 -75.89)"/><path class="cls-2" d="M376,671a24.14,24.14,0,0,0,0,48.28V671Z" transform="translate(-244.89 -75.89)"/><path class="cls-2" d="M381.7,671a12.07,12.07,0,1,0,24.14,0Z" transform="translate(-244.89 -75.89)"/><path class="cls-2" d="M381.7,770a12.07,12.07,0,0,1,24.14,0Z" transform="translate(-244.89 -75.89)"/><path class="cls-2" d="M344.3,732.57a12.07,12.07,0,1,0,0-24.14v24.14Z" transform="translate(-244.89 -75.89)"/><path class="cls-2" d="M443.24,732.57a12.07,12.07,0,1,1,0-24.14v24.14Z" transform="translate(-244.89 -75.89)"/><path class="cls-2" d="M395.34,702.39a24.14,24.14,0,1,1,48.28,0Z" transform="translate(-244.89 -75.89)"/><path class="cls-2" d="M344.68,738.61a24.14,24.14,0,1,0,48.28,0Z" transform="translate(-244.89 -75.89)"/><path class="cls-2" d="M394,710.92a9.59,9.59,0,1,1-9.59,9.58,9.59,9.59,0,0,1,9.59-9.58Z" transform="translate(-244.89 -75.89)"/><path class="cls-2" d="M511.56,721.69a24.14,24.14,0,1,1,0,48.28V721.69Z" transform="translate(-244.89 -75.89)"/><path class="cls-2" d="M475.34,671a24.14,24.14,0,1,0,0,48.28V671Z" transform="translate(-244.89 -75.89)"/><path class="cls-2" d="M481,671a12.07,12.07,0,1,0,24.14,0Z" transform="translate(-244.89 -75.89)"/><path class="cls-2" d="M481,770a12.07,12.07,0,0,1,24.14,0Z" transform="translate(-244.89 -75.89)"/><path class="cls-2" d="M443.59,732.57a12.07,12.07,0,1,0,0-24.14v24.14Z" transform="translate(-244.89 -75.89)"/><path class="cls-2" d="M542.54,732.57a12.07,12.07,0,1,1,0-24.14v24.14Z" transform="translate(-244.89 -75.89)"/><path class="cls-2" d="M494.64,702.39a24.14,24.14,0,1,1,48.28,0Z" transform="translate(-244.89 -75.89)"/><path class="cls-2" d="M444,738.61a24.14,24.14,0,1,0,48.28,0Z" transform="translate(-244.89 -75.89)"/><path class="cls-2" d="M493.26,710.92a9.59,9.59,0,1,1-9.59,9.58,9.59,9.59,0,0,1,9.59-9.58Z" transform="translate(-244.89 -75.89)"/><path class="cls-2" d="M610.85,721.69a24.14,24.14,0,1,1,0,48.28V721.69Z" transform="translate(-244.89 -75.89)"/><path class="cls-2" d="M574.64,671a24.14,24.14,0,0,0,0,48.28V671Z" transform="translate(-244.89 -75.89)"/><path class="cls-2" d="M580.29,671a12.07,12.07,0,1,0,24.14,0Z" transform="translate(-244.89 -75.89)"/><path class="cls-2" d="M580.29,770a12.07,12.07,0,0,1,24.14,0Z" transform="translate(-244.89 -75.89)"/><path class="cls-2" d="M542.89,732.57a12.07,12.07,0,1,0,0-24.14v24.14Z" transform="translate(-244.89 -75.89)"/><path class="cls-2" d="M641.83,732.57a12.07,12.07,0,0,1,0-24.14v24.14Z" transform="translate(-244.89 -75.89)"/><path class="cls-2" d="M593.93,702.39a24.14,24.14,0,1,1,48.28,0Z" transform="translate(-244.89 -75.89)"/><path class="cls-2" d="M543.27,738.61a24.14,24.14,0,0,0,48.29,0Z" transform="translate(-244.89 -75.89)"/><path class="cls-2" d="M592.55,710.92A9.59,9.59,0,1,1,583,720.5a9.59,9.59,0,0,1,9.58-9.58Z" transform="translate(-244.89 -75.89)"/><path class="cls-2" d="M710.15,721.69a24.14,24.14,0,1,1,0,48.28V721.69Z" transform="translate(-244.89 -75.89)"/><path class="cls-2" d="M673.93,671a24.14,24.14,0,1,0,0,48.28V671Z" transform="translate(-244.89 -75.89)"/><path class="cls-2" d="M679.59,671a12.07,12.07,0,0,0,24.14,0Z" transform="translate(-244.89 -75.89)"/><path class="cls-2" d="M679.59,770a12.07,12.07,0,0,1,24.14,0Z" transform="translate(-244.89 -75.89)"/><path class="cls-2" d="M642.18,732.57a12.07,12.07,0,1,0,0-24.14v24.14Z" transform="translate(-244.89 -75.89)"/><path class="cls-2" d="M741.13,732.57a12.07,12.07,0,1,1,0-24.14v24.14Z" transform="translate(-244.89 -75.89)"/><path class="cls-2" d="M693.23,702.39a24.14,24.14,0,1,1,48.29,0Z" transform="translate(-244.89 -75.89)"/><path class="cls-2" d="M642.57,738.61a24.14,24.14,0,1,0,48.28,0Z" transform="translate(-244.89 -75.89)"/><path class="cls-2" d="M691.85,710.92a9.59,9.59,0,1,1-9.59,9.58,9.59,9.59,0,0,1,9.59-9.58Z" transform="translate(-244.89 -75.89)"/><path class="cls-2" d="M809.45,721.69a24.14,24.14,0,0,1,0,48.28V721.69Z" transform="translate(-244.89 -75.89)"/><path class="cls-2" d="M773.23,671a24.14,24.14,0,1,0,0,48.28V671Z" transform="translate(-244.89 -75.89)"/><path class="cls-2" d="M778.89,671A12.07,12.07,0,0,0,803,671Z" transform="translate(-244.89 -75.89)"/><path class="cls-2" d="M778.89,770A12.07,12.07,0,0,1,803,770Z" transform="translate(-244.89 -75.89)"/><path class="cls-2" d="M741.48,732.57a12.07,12.07,0,1,0,0-24.14v24.14Z" transform="translate(-244.89 -75.89)"/><path class="cls-2" d="M840.43,732.57a12.07,12.07,0,1,1,0-24.14v24.14Z" transform="translate(-244.89 -75.89)"/><path class="cls-2" d="M792.53,702.39a24.14,24.14,0,1,1,48.28,0Z" transform="translate(-244.89 -75.89)"/><path class="cls-2" d="M741.87,738.61a24.14,24.14,0,1,0,48.28,0Z" transform="translate(-244.89 -75.89)"/><path class="cls-2" d="M791.15,710.92a9.59,9.59,0,1,1-9.59,9.58,9.59,9.59,0,0,1,9.59-9.58Z" transform="translate(-244.89 -75.89)"/><path class="cls-2" d="M908.74,721.69a24.14,24.14,0,1,1,0,48.28V721.69Z" transform="translate(-244.89 -75.89)"/><path class="cls-2" d="M872.53,671a24.14,24.14,0,1,0,0,48.28V671Z" transform="translate(-244.89 -75.89)"/><path class="cls-2" d="M878.18,671a12.07,12.07,0,0,0,24.14,0Z" transform="translate(-244.89 -75.89)"/><path class="cls-2" d="M878.18,770a12.07,12.07,0,0,1,24.14,0Z" transform="translate(-244.89 -75.89)"/><path class="cls-2" d="M840.78,732.57a12.07,12.07,0,1,0,0-24.14v24.14Z" transform="translate(-244.89 -75.89)"/><path class="cls-2" d="M939.72,732.57a12.07,12.07,0,0,1,0-24.14v24.14Z" transform="translate(-244.89 -75.89)"/><path class="cls-2" d="M891.82,702.39a24.14,24.14,0,1,1,48.28,0Z" transform="translate(-244.89 -75.89)"/><path class="cls-2" d="M841.16,738.61a24.14,24.14,0,1,0,48.28,0Z" transform="translate(-244.89 -75.89)"/><path class="cls-2" d="M890.44,710.92a9.59,9.59,0,1,1-9.59,9.58,9.59,9.59,0,0,1,9.59-9.58Z" transform="translate(-244.89 -75.89)"/><path class="cls-2" d="M313,622.71A24.14,24.14,0,1,1,313,671V622.71Z" transform="translate(-244.89 -75.89)"/><path class="cls-2" d="M276.75,572a24.14,24.14,0,0,0,0,48.29V572Z" transform="translate(-244.89 -75.89)"/><path class="cls-2" d="M282.4,572a12.07,12.07,0,1,0,24.14,0Z" transform="translate(-244.89 -75.89)"/><path class="cls-2" d="M282.4,671a12.07,12.07,0,0,1,24.14,0Z" transform="translate(-244.89 -75.89)"/><path class="cls-2" d="M245,633.59a12.07,12.07,0,1,0,0-24.14v24.14Z" transform="translate(-244.89 -75.89)"/><path class="cls-2" d="M343.95,633.59a12.07,12.07,0,1,1,0-24.14v24.14Z" transform="translate(-244.89 -75.89)"/><path class="cls-2" d="M296,603.41a24.14,24.14,0,0,1,48.28,0Z" transform="translate(-244.89 -75.89)"/><path class="cls-2" d="M245.38,639.63a24.14,24.14,0,0,0,48.28,0Z" transform="translate(-244.89 -75.89)"/><path class="cls-2" d="M294.66,611.93a9.59,9.59,0,1,1-9.59,9.59,9.59,9.59,0,0,1,9.59-9.59Z" transform="translate(-244.89 -75.89)"/><path class="cls-2" d="M412.26,622.71a24.14,24.14,0,1,1,0,48.28V622.71Z" transform="translate(-244.89 -75.89)"/><path class="cls-2" d="M376,572a24.14,24.14,0,0,0,0,48.29V572Z" transform="translate(-244.89 -75.89)"/><path class="cls-2" d="M381.7,572a12.07,12.07,0,1,0,24.14,0Z" transform="translate(-244.89 -75.89)"/><path class="cls-2" d="M381.7,671a12.07,12.07,0,0,1,24.14,0Z" transform="translate(-244.89 -75.89)"/><path class="cls-2" d="M344.3,633.59a12.07,12.07,0,1,0,0-24.14v24.14Z" transform="translate(-244.89 -75.89)"/><path class="cls-2" d="M443.24,633.59a12.07,12.07,0,1,1,0-24.14v24.14Z" transform="translate(-244.89 -75.89)"/><path class="cls-2" d="M395.34,603.41a24.14,24.14,0,0,1,48.28,0Z" transform="translate(-244.89 -75.89)"/><path class="cls-2" d="M344.68,639.63a24.14,24.14,0,0,0,48.28,0Z" transform="translate(-244.89 -75.89)"/><path class="cls-2" d="M394,611.93a9.59,9.59,0,1,1-9.59,9.59,9.59,9.59,0,0,1,9.59-9.59Z" transform="translate(-244.89 -75.89)"/><path class="cls-2" d="M511.56,622.71a24.14,24.14,0,1,1,0,48.28V622.71Z" transform="translate(-244.89 -75.89)"/><path class="cls-2" d="M475.34,572a24.14,24.14,0,0,0,0,48.29V572Z" transform="translate(-244.89 -75.89)"/><path class="cls-2" d="M481,572a12.07,12.07,0,1,0,24.14,0Z" transform="translate(-244.89 -75.89)"/><path class="cls-2" d="M481,671a12.07,12.07,0,0,1,24.14,0Z" transform="translate(-244.89 -75.89)"/><path class="cls-2" d="M443.59,633.59a12.07,12.07,0,1,0,0-24.14v24.14Z" transform="translate(-244.89 -75.89)"/><path class="cls-2" d="M542.54,633.59a12.07,12.07,0,1,1,0-24.14v24.14Z" transform="translate(-244.89 -75.89)"/><path class="cls-2" d="M494.64,603.41a24.14,24.14,0,0,1,48.28,0Z" transform="translate(-244.89 -75.89)"/><path class="cls-2" d="M444,639.63a24.14,24.14,0,0,0,48.28,0Z" transform="translate(-244.89 -75.89)"/><path class="cls-2" d="M493.26,611.93a9.59,9.59,0,1,1-9.59,9.59,9.59,9.59,0,0,1,9.59-9.59Z" transform="translate(-244.89 -75.89)"/><path class="cls-2" d="M610.85,622.71a24.14,24.14,0,1,1,0,48.28V622.71Z" transform="translate(-244.89 -75.89)"/><path class="cls-2" d="M574.64,572a24.14,24.14,0,0,0,0,48.29V572Z" transform="translate(-244.89 -75.89)"/><path class="cls-2" d="M580.29,572a12.07,12.07,0,1,0,24.14,0Z" transform="translate(-244.89 -75.89)"/><path class="cls-2" d="M580.29,671a12.07,12.07,0,0,1,24.14,0Z" transform="translate(-244.89 -75.89)"/><path class="cls-2" d="M542.89,633.59a12.07,12.07,0,1,0,0-24.14v24.14Z" transform="translate(-244.89 -75.89)"/><path class="cls-2" d="M641.83,633.59a12.07,12.07,0,0,1,0-24.14v24.14Z" transform="translate(-244.89 -75.89)"/><path class="cls-2" d="M593.93,603.41a24.14,24.14,0,1,1,48.28,0Z" transform="translate(-244.89 -75.89)"/><path class="cls-2" d="M543.27,639.63a24.14,24.14,0,0,0,48.29,0Z" transform="translate(-244.89 -75.89)"/><path class="cls-2" d="M592.55,611.93a9.59,9.59,0,1,1-9.58,9.59,9.59,9.59,0,0,1,9.58-9.59Z" transform="translate(-244.89 -75.89)"/><path class="cls-2" d="M710.15,622.71a24.14,24.14,0,1,1,0,48.28V622.71Z" transform="translate(-244.89 -75.89)"/><path class="cls-2" d="M673.93,572a24.14,24.14,0,0,0,0,48.29V572Z" transform="translate(-244.89 -75.89)"/><path class="cls-2" d="M679.59,572a12.07,12.07,0,1,0,24.14,0Z" transform="translate(-244.89 -75.89)"/><path class="cls-2" d="M679.59,671a12.07,12.07,0,0,1,24.14,0Z" transform="translate(-244.89 -75.89)"/><path class="cls-2" d="M642.18,633.59a12.07,12.07,0,1,0,0-24.14v24.14Z" transform="translate(-244.89 -75.89)"/><path class="cls-2" d="M741.13,633.59a12.07,12.07,0,1,1,0-24.14v24.14Z" transform="translate(-244.89 -75.89)"/><path class="cls-2" d="M693.23,603.41a24.14,24.14,0,0,1,48.29,0Z" transform="translate(-244.89 -75.89)"/><path class="cls-2" d="M642.57,639.63a24.14,24.14,0,0,0,48.28,0Z" transform="translate(-244.89 -75.89)"/><path class="cls-2" d="M691.85,611.93a9.59,9.59,0,1,1-9.59,9.59,9.59,9.59,0,0,1,9.59-9.59Z" transform="translate(-244.89 -75.89)"/><path class="cls-2" d="M809.45,622.71a24.14,24.14,0,0,1,0,48.28V622.71Z" transform="translate(-244.89 -75.89)"/><path class="cls-2" d="M773.23,572a24.14,24.14,0,1,0,0,48.29V572Z" transform="translate(-244.89 -75.89)"/><path class="cls-2" d="M778.89,572A12.07,12.07,0,1,0,803,572Z" transform="translate(-244.89 -75.89)"/><path class="cls-2" d="M778.89,671A12.07,12.07,0,0,1,803,671Z" transform="translate(-244.89 -75.89)"/><path class="cls-2" d="M741.48,633.59a12.07,12.07,0,1,0,0-24.14v24.14Z" transform="translate(-244.89 -75.89)"/><path class="cls-2" d="M840.43,633.59a12.07,12.07,0,1,1,0-24.14v24.14Z" transform="translate(-244.89 -75.89)"/><path class="cls-2" d="M792.53,603.41a24.14,24.14,0,1,1,48.28,0Z" transform="translate(-244.89 -75.89)"/><path class="cls-2" d="M741.87,639.63a24.14,24.14,0,0,0,48.28,0Z" transform="translate(-244.89 -75.89)"/><path class="cls-2" d="M791.15,611.93a9.59,9.59,0,1,1-9.59,9.59,9.59,9.59,0,0,1,9.59-9.59Z" transform="translate(-244.89 -75.89)"/><path class="cls-2" d="M908.74,622.71a24.14,24.14,0,1,1,0,48.28V622.71Z" transform="translate(-244.89 -75.89)"/><path class="cls-2" d="M872.53,572a24.14,24.14,0,1,0,0,48.29V572Z" transform="translate(-244.89 -75.89)"/><path class="cls-2" d="M878.18,572a12.07,12.07,0,1,0,24.14,0Z" transform="translate(-244.89 -75.89)"/><path class="cls-2" d="M878.18,671a12.07,12.07,0,0,1,24.14,0Z" transform="translate(-244.89 -75.89)"/><path class="cls-2" d="M840.78,633.59a12.07,12.07,0,1,0,0-24.14v24.14Z" transform="translate(-244.89 -75.89)"/><path class="cls-2" d="M939.72,633.59a12.07,12.07,0,0,1,0-24.14v24.14Z" transform="translate(-244.89 -75.89)"/><path class="cls-2" d="M891.82,603.41a24.14,24.14,0,1,1,48.28,0Z" transform="translate(-244.89 -75.89)"/><path class="cls-2" d="M841.16,639.63a24.14,24.14,0,0,0,48.28,0Z" transform="translate(-244.89 -75.89)"/><path class="cls-2" d="M890.44,611.93a9.59,9.59,0,1,1-9.59,9.59,9.59,9.59,0,0,1,9.59-9.59Z" transform="translate(-244.89 -75.89)"/><path class="cls-2" d="M313,523.72A24.14,24.14,0,1,1,313,572V523.72Z" transform="translate(-244.89 -75.89)"/><path class="cls-2" d="M276.75,473.06a24.14,24.14,0,1,0,0,48.28V473.06Z" transform="translate(-244.89 -75.89)"/><path class="cls-2" d="M282.4,473.06a12.07,12.07,0,0,0,24.14,0Z" transform="translate(-244.89 -75.89)"/><path class="cls-2" d="M282.4,572a12.07,12.07,0,0,1,24.14,0Z" transform="translate(-244.89 -75.89)"/><path class="cls-2" d="M245,534.61a12.07,12.07,0,1,0,0-24.14v24.14Z" transform="translate(-244.89 -75.89)"/><path class="cls-2" d="M343.95,534.61a12.07,12.07,0,0,1,0-24.14v24.14Z" transform="translate(-244.89 -75.89)"/><path class="cls-2" d="M296,504.43a24.14,24.14,0,1,1,48.28,0Z" transform="translate(-244.89 -75.89)"/><path class="cls-2" d="M245.38,540.65a24.14,24.14,0,0,0,48.28,0Z" transform="translate(-244.89 -75.89)"/><path class="cls-2" d="M294.66,513a9.59,9.59,0,1,1-9.59,9.59,9.59,9.59,0,0,1,9.59-9.59Z" transform="translate(-244.89 -75.89)"/><path class="cls-2" d="M412.26,523.72a24.14,24.14,0,1,1,0,48.28V523.72Z" transform="translate(-244.89 -75.89)"/><path class="cls-2" d="M376,473.06a24.14,24.14,0,1,0,0,48.28V473.06Z" transform="translate(-244.89 -75.89)"/><path class="cls-2" d="M381.7,473.06a12.07,12.07,0,0,0,24.14,0Z" transform="translate(-244.89 -75.89)"/><path class="cls-2" d="M381.7,572a12.07,12.07,0,1,1,24.14,0Z" transform="translate(-244.89 -75.89)"/><path class="cls-2" d="M344.3,534.61a12.07,12.07,0,1,0,0-24.14v24.14Z" transform="translate(-244.89 -75.89)"/><path class="cls-2" d="M443.24,534.61a12.07,12.07,0,1,1,0-24.14v24.14Z" transform="translate(-244.89 -75.89)"/><path class="cls-2" d="M395.34,504.43a24.14,24.14,0,1,1,48.28,0Z" transform="translate(-244.89 -75.89)"/><path class="cls-2" d="M344.68,540.65a24.14,24.14,0,0,0,48.28,0Z" transform="translate(-244.89 -75.89)"/><path class="cls-2" d="M394,513a9.59,9.59,0,1,1-9.59,9.59A9.59,9.59,0,0,1,394,513Z" transform="translate(-244.89 -75.89)"/><path class="cls-2" d="M511.56,523.72a24.14,24.14,0,1,1,0,48.28V523.72Z" transform="translate(-244.89 -75.89)"/><path class="cls-2" d="M475.34,473.06a24.14,24.14,0,1,0,0,48.28V473.06Z" transform="translate(-244.89 -75.89)"/><path class="cls-2" d="M481,473.06a12.07,12.07,0,0,0,24.14,0Z" transform="translate(-244.89 -75.89)"/><path class="cls-2" d="M481,572a12.07,12.07,0,1,1,24.14,0Z" transform="translate(-244.89 -75.89)"/><path class="cls-2" d="M443.59,534.61a12.07,12.07,0,1,0,0-24.14v24.14Z" transform="translate(-244.89 -75.89)"/><path class="cls-2" d="M542.54,534.61a12.07,12.07,0,1,1,0-24.14v24.14Z" transform="translate(-244.89 -75.89)"/><path class="cls-2" d="M494.64,504.43a24.14,24.14,0,1,1,48.28,0Z" transform="translate(-244.89 -75.89)"/><path class="cls-2" d="M444,540.65a24.14,24.14,0,0,0,48.28,0Z" transform="translate(-244.89 -75.89)"/><path class="cls-2" d="M493.26,513a9.59,9.59,0,1,1-9.59,9.59,9.59,9.59,0,0,1,9.59-9.59Z" transform="translate(-244.89 -75.89)"/><path class="cls-2" d="M610.85,523.72a24.14,24.14,0,1,1,0,48.28V523.72Z" transform="translate(-244.89 -75.89)"/><path class="cls-2" d="M574.64,473.06a24.14,24.14,0,1,0,0,48.28V473.06Z" transform="translate(-244.89 -75.89)"/><path class="cls-2" d="M580.29,473.06a12.07,12.07,0,0,0,24.14,0Z" transform="translate(-244.89 -75.89)"/><path class="cls-2" d="M580.29,572a12.07,12.07,0,1,1,24.14,0Z" transform="translate(-244.89 -75.89)"/><path class="cls-2" d="M542.89,534.61a12.07,12.07,0,1,0,0-24.14v24.14Z" transform="translate(-244.89 -75.89)"/><path class="cls-2" d="M641.83,534.61a12.07,12.07,0,0,1,0-24.14v24.14Z" transform="translate(-244.89 -75.89)"/><path class="cls-2" d="M593.93,504.43a24.14,24.14,0,1,1,48.28,0Z" transform="translate(-244.89 -75.89)"/><path class="cls-2" d="M543.27,540.65a24.14,24.14,0,0,0,48.29,0Z" transform="translate(-244.89 -75.89)"/><path class="cls-2" d="M592.55,513a9.59,9.59,0,1,1-9.58,9.59,9.59,9.59,0,0,1,9.58-9.59Z" transform="translate(-244.89 -75.89)"/><path class="cls-2" d="M710.15,523.72a24.14,24.14,0,1,1,0,48.28V523.72Z" transform="translate(-244.89 -75.89)"/><path class="cls-2" d="M673.93,473.06a24.14,24.14,0,1,0,0,48.28V473.06Z" transform="translate(-244.89 -75.89)"/><path class="cls-2" d="M679.59,473.06a12.07,12.07,0,0,0,24.14,0Z" transform="translate(-244.89 -75.89)"/><path class="cls-2" d="M679.59,572a12.07,12.07,0,0,1,24.14,0Z" transform="translate(-244.89 -75.89)"/><path class="cls-2" d="M642.18,534.61a12.07,12.07,0,1,0,0-24.14v24.14Z" transform="translate(-244.89 -75.89)"/><path class="cls-2" d="M741.13,534.61a12.07,12.07,0,1,1,0-24.14v24.14Z" transform="translate(-244.89 -75.89)"/><path class="cls-2" d="M693.23,504.43a24.14,24.14,0,1,1,48.29,0Z" transform="translate(-244.89 -75.89)"/><path class="cls-2" d="M642.57,540.65a24.14,24.14,0,1,0,48.28,0Z" transform="translate(-244.89 -75.89)"/><path class="cls-2" d="M691.85,513a9.59,9.59,0,1,1-9.59,9.59,9.59,9.59,0,0,1,9.59-9.59Z" transform="translate(-244.89 -75.89)"/><path class="cls-2" d="M809.45,523.72a24.14,24.14,0,0,1,0,48.28V523.72Z" transform="translate(-244.89 -75.89)"/><path class="cls-2" d="M773.23,473.06a24.14,24.14,0,1,0,0,48.28V473.06Z" transform="translate(-244.89 -75.89)"/><path class="cls-2" d="M778.89,473.06a12.07,12.07,0,0,0,24.14,0Z" transform="translate(-244.89 -75.89)"/><path class="cls-2" d="M778.89,572A12.07,12.07,0,0,1,803,572Z" transform="translate(-244.89 -75.89)"/><path class="cls-2" d="M741.48,534.61a12.07,12.07,0,1,0,0-24.14v24.14Z" transform="translate(-244.89 -75.89)"/><path class="cls-2" d="M840.43,534.61a12.07,12.07,0,1,1,0-24.14v24.14Z" transform="translate(-244.89 -75.89)"/><path class="cls-2" d="M792.53,504.43a24.14,24.14,0,1,1,48.28,0Z" transform="translate(-244.89 -75.89)"/><path class="cls-2" d="M741.87,540.65a24.14,24.14,0,1,0,48.28,0Z" transform="translate(-244.89 -75.89)"/><path class="cls-2" d="M791.15,513a9.59,9.59,0,1,1-9.59,9.59,9.59,9.59,0,0,1,9.59-9.59Z" transform="translate(-244.89 -75.89)"/><path class="cls-2" d="M908.74,523.72a24.14,24.14,0,1,1,0,48.28V523.72Z" transform="translate(-244.89 -75.89)"/><path class="cls-2" d="M872.53,473.06a24.14,24.14,0,1,0,0,48.28V473.06Z" transform="translate(-244.89 -75.89)"/><path class="cls-2" d="M878.18,473.06a12.07,12.07,0,0,0,24.14,0Z" transform="translate(-244.89 -75.89)"/><path class="cls-2" d="M878.18,572a12.07,12.07,0,0,1,24.14,0Z" transform="translate(-244.89 -75.89)"/><path class="cls-2" d="M840.78,534.61a12.07,12.07,0,1,0,0-24.14v24.14Z" transform="translate(-244.89 -75.89)"/><path class="cls-2" d="M939.72,534.61a12.07,12.07,0,0,1,0-24.14v24.14Z" transform="translate(-244.89 -75.89)"/><path class="cls-2" d="M891.82,504.43a24.14,24.14,0,1,1,48.28,0Z" transform="translate(-244.89 -75.89)"/><path class="cls-2" d="M841.16,540.65a24.14,24.14,0,1,0,48.28,0Z" transform="translate(-244.89 -75.89)"/><path class="cls-2" d="M890.44,513a9.59,9.59,0,1,1-9.59,9.59,9.59,9.59,0,0,1,9.59-9.59Z" transform="translate(-244.89 -75.89)"/><path class="cls-2" d="M313,424.74A24.14,24.14,0,1,1,313,473V424.74Z" transform="translate(-244.89 -75.89)"/><path class="cls-2" d="M276.75,374.08a24.14,24.14,0,1,0,0,48.28V374.08Z" transform="translate(-244.89 -75.89)"/><path class="cls-2" d="M282.4,374.08a12.07,12.07,0,0,0,24.14,0Z" transform="translate(-244.89 -75.89)"/><path class="cls-2" d="M282.4,473a12.07,12.07,0,0,1,24.14,0Z" transform="translate(-244.89 -75.89)"/><path class="cls-2" d="M245,435.62a12.07,12.07,0,0,0,0-24.14v24.14Z" transform="translate(-244.89 -75.89)"/><path class="cls-2" d="M343.95,435.62a12.07,12.07,0,0,1,0-24.14v24.14Z" transform="translate(-244.89 -75.89)"/><path class="cls-2" d="M296,405.44a24.14,24.14,0,0,1,48.28,0Z" transform="translate(-244.89 -75.89)"/><path class="cls-2" d="M245.38,441.66a24.14,24.14,0,1,0,48.28,0Z" transform="translate(-244.89 -75.89)"/><path class="cls-2" d="M294.66,414a9.59,9.59,0,1,1-9.59,9.59,9.59,9.59,0,0,1,9.59-9.59Z" transform="translate(-244.89 -75.89)"/><path class="cls-2" d="M412.26,424.74a24.14,24.14,0,1,1,0,48.28V424.74Z" transform="translate(-244.89 -75.89)"/><path class="cls-2" d="M376,374.08a24.14,24.14,0,1,0,0,48.28V374.08Z" transform="translate(-244.89 -75.89)"/><path class="cls-2" d="M381.7,374.08a12.07,12.07,0,0,0,24.14,0Z" transform="translate(-244.89 -75.89)"/><path class="cls-2" d="M381.7,473a12.07,12.07,0,0,1,24.14,0Z" transform="translate(-244.89 -75.89)"/><path class="cls-2" d="M344.3,435.62a12.07,12.07,0,0,0,0-24.14v24.14Z" transform="translate(-244.89 -75.89)"/><path class="cls-2" d="M443.24,435.62a12.07,12.07,0,0,1,0-24.14v24.14Z" transform="translate(-244.89 -75.89)"/><path class="cls-2" d="M395.34,405.44a24.14,24.14,0,0,1,48.28,0Z" transform="translate(-244.89 -75.89)"/><path class="cls-2" d="M344.68,441.66a24.14,24.14,0,1,0,48.28,0Z" transform="translate(-244.89 -75.89)"/><path class="cls-2" d="M394,414a9.59,9.59,0,1,1-9.59,9.59A9.59,9.59,0,0,1,394,414Z" transform="translate(-244.89 -75.89)"/><path class="cls-2" d="M511.56,424.74a24.14,24.14,0,1,1,0,48.28V424.74Z" transform="translate(-244.89 -75.89)"/><path class="cls-2" d="M475.34,374.08a24.14,24.14,0,1,0,0,48.28V374.08Z" transform="translate(-244.89 -75.89)"/><path class="cls-2" d="M481,374.08a12.07,12.07,0,0,0,24.14,0Z" transform="translate(-244.89 -75.89)"/><path class="cls-2" d="M481,473a12.07,12.07,0,0,1,24.14,0Z" transform="translate(-244.89 -75.89)"/><path class="cls-2" d="M443.59,435.62a12.07,12.07,0,0,0,0-24.14v24.14Z" transform="translate(-244.89 -75.89)"/><path class="cls-2" d="M542.54,435.62a12.07,12.07,0,1,1,0-24.14v24.14Z" transform="translate(-244.89 -75.89)"/><path class="cls-2" d="M494.64,405.44a24.14,24.14,0,0,1,48.28,0Z" transform="translate(-244.89 -75.89)"/><path class="cls-2" d="M444,441.66a24.14,24.14,0,1,0,48.28,0Z" transform="translate(-244.89 -75.89)"/><path class="cls-2" d="M493.26,414a9.59,9.59,0,1,1-9.59,9.59,9.59,9.59,0,0,1,9.59-9.59Z" transform="translate(-244.89 -75.89)"/><path class="cls-2" d="M610.85,424.74a24.14,24.14,0,1,1,0,48.28V424.74Z" transform="translate(-244.89 -75.89)"/><path class="cls-2" d="M574.64,374.08a24.14,24.14,0,1,0,0,48.28V374.08Z" transform="translate(-244.89 -75.89)"/><path class="cls-2" d="M580.29,374.08a12.07,12.07,0,0,0,24.14,0Z" transform="translate(-244.89 -75.89)"/><path class="cls-2" d="M580.29,473a12.07,12.07,0,0,1,24.14,0Z" transform="translate(-244.89 -75.89)"/><path class="cls-2" d="M542.89,435.62a12.07,12.07,0,0,0,0-24.14v24.14Z" transform="translate(-244.89 -75.89)"/><path class="cls-2" d="M641.83,435.62a12.07,12.07,0,0,1,0-24.14v24.14Z" transform="translate(-244.89 -75.89)"/><path class="cls-2" d="M593.93,405.44a24.14,24.14,0,1,1,48.28,0Z" transform="translate(-244.89 -75.89)"/><path class="cls-2" d="M543.27,441.66a24.14,24.14,0,1,0,48.29,0Z" transform="translate(-244.89 -75.89)"/><path class="cls-2" d="M592.55,414a9.59,9.59,0,1,1-9.58,9.59,9.59,9.59,0,0,1,9.58-9.59Z" transform="translate(-244.89 -75.89)"/><path class="cls-2" d="M710.15,424.74a24.14,24.14,0,1,1,0,48.28V424.74Z" transform="translate(-244.89 -75.89)"/><path class="cls-2" d="M673.93,374.08a24.14,24.14,0,1,0,0,48.28V374.08Z" transform="translate(-244.89 -75.89)"/><path class="cls-2" d="M679.59,374.08a12.07,12.07,0,0,0,24.14,0Z" transform="translate(-244.89 -75.89)"/><path class="cls-2" d="M679.59,473a12.07,12.07,0,0,1,24.14,0Z" transform="translate(-244.89 -75.89)"/><path class="cls-2" d="M642.18,435.62a12.07,12.07,0,0,0,0-24.14v24.14Z" transform="translate(-244.89 -75.89)"/><path class="cls-2" d="M741.13,435.62a12.07,12.07,0,0,1,0-24.14v24.14Z" transform="translate(-244.89 -75.89)"/><path class="cls-2" d="M693.23,405.44a24.14,24.14,0,0,1,48.29,0Z" transform="translate(-244.89 -75.89)"/><path class="cls-2" d="M642.57,441.66a24.14,24.14,0,1,0,48.28,0Z" transform="translate(-244.89 -75.89)"/><path class="cls-2" d="M691.85,414a9.59,9.59,0,1,1-9.59,9.59,9.59,9.59,0,0,1,9.59-9.59Z" transform="translate(-244.89 -75.89)"/><path class="cls-2" d="M809.45,424.74a24.14,24.14,0,0,1,0,48.28V424.74Z" transform="translate(-244.89 -75.89)"/><path class="cls-2" d="M773.23,374.08a24.14,24.14,0,1,0,0,48.28V374.08Z" transform="translate(-244.89 -75.89)"/><path class="cls-2" d="M778.89,374.08a12.07,12.07,0,0,0,24.14,0Z" transform="translate(-244.89 -75.89)"/><path class="cls-2" d="M778.89,473A12.07,12.07,0,0,1,803,473Z" transform="translate(-244.89 -75.89)"/><path class="cls-2" d="M741.48,435.62a12.07,12.07,0,0,0,0-24.14v24.14Z" transform="translate(-244.89 -75.89)"/><path class="cls-2" d="M840.43,435.62a12.07,12.07,0,0,1,0-24.14v24.14Z" transform="translate(-244.89 -75.89)"/><path class="cls-2" d="M792.53,405.44a24.14,24.14,0,1,1,48.28,0Z" transform="translate(-244.89 -75.89)"/><path class="cls-2" d="M741.87,441.66a24.14,24.14,0,1,0,48.28,0Z" transform="translate(-244.89 -75.89)"/><path class="cls-2" d="M791.15,414a9.59,9.59,0,1,1-9.59,9.59,9.59,9.59,0,0,1,9.59-9.59Z" transform="translate(-244.89 -75.89)"/><path class="cls-2" d="M908.74,424.74a24.14,24.14,0,1,1,0,48.28V424.74Z" transform="translate(-244.89 -75.89)"/><path class="cls-2" d="M872.53,374.08a24.14,24.14,0,1,0,0,48.28V374.08Z" transform="translate(-244.89 -75.89)"/><path class="cls-2" d="M878.18,374.08a12.07,12.07,0,0,0,24.14,0Z" transform="translate(-244.89 -75.89)"/><path class="cls-2" d="M878.18,473a12.07,12.07,0,0,1,24.14,0Z" transform="translate(-244.89 -75.89)"/><path class="cls-2" d="M840.78,435.62a12.07,12.07,0,0,0,0-24.14v24.14Z" transform="translate(-244.89 -75.89)"/><path class="cls-2" d="M939.72,435.62a12.07,12.07,0,0,1,0-24.14v24.14Z" transform="translate(-244.89 -75.89)"/><path class="cls-2" d="M891.82,405.44a24.14,24.14,0,1,1,48.28,0Z" transform="translate(-244.89 -75.89)"/><path class="cls-2" d="M841.16,441.66a24.14,24.14,0,1,0,48.28,0Z" transform="translate(-244.89 -75.89)"/><path class="cls-2" d="M890.44,414a9.59,9.59,0,1,1-9.59,9.59,9.59,9.59,0,0,1,9.59-9.59Z" transform="translate(-244.89 -75.89)"/><path class="cls-2" d="M313,325.76A24.14,24.14,0,1,1,313,374V325.76Z" transform="translate(-244.89 -75.89)"/><path class="cls-2" d="M276.75,275.1a24.14,24.14,0,1,0,0,48.28V275.1Z" transform="translate(-244.89 -75.89)"/><path class="cls-2" d="M282.4,275.1a12.07,12.07,0,0,0,24.14,0Z" transform="translate(-244.89 -75.89)"/><path class="cls-2" d="M282.4,374a12.07,12.07,0,0,1,24.14,0Z" transform="translate(-244.89 -75.89)"/><path class="cls-2" d="M245,336.64a12.07,12.07,0,1,0,0-24.14v24.14Z" transform="translate(-244.89 -75.89)"/><path class="cls-2" d="M343.95,336.64a12.07,12.07,0,0,1,0-24.14v24.14Z" transform="translate(-244.89 -75.89)"/><path class="cls-2" d="M296,306.46a24.14,24.14,0,0,1,48.28,0Z" transform="translate(-244.89 -75.89)"/><path class="cls-2" d="M245.38,342.68a24.14,24.14,0,0,0,48.28,0Z" transform="translate(-244.89 -75.89)"/><path class="cls-2" d="M294.66,315a9.59,9.59,0,1,1-9.59,9.59,9.59,9.59,0,0,1,9.59-9.59Z" transform="translate(-244.89 -75.89)"/><path class="cls-2" d="M412.26,325.76a24.14,24.14,0,1,1,0,48.28V325.76Z" transform="translate(-244.89 -75.89)"/><path class="cls-2" d="M376,275.1a24.14,24.14,0,1,0,0,48.28V275.1Z" transform="translate(-244.89 -75.89)"/><path class="cls-2" d="M381.7,275.1a12.07,12.07,0,0,0,24.14,0Z" transform="translate(-244.89 -75.89)"/><path class="cls-2" d="M381.7,374a12.07,12.07,0,0,1,24.14,0Z" transform="translate(-244.89 -75.89)"/><path class="cls-2" d="M344.3,336.64a12.07,12.07,0,1,0,0-24.14v24.14Z" transform="translate(-244.89 -75.89)"/><path class="cls-2" d="M443.24,336.64a12.07,12.07,0,1,1,0-24.14v24.14Z" transform="translate(-244.89 -75.89)"/><path class="cls-2" d="M395.34,306.46a24.14,24.14,0,0,1,48.28,0Z" transform="translate(-244.89 -75.89)"/><path class="cls-2" d="M344.68,342.68a24.14,24.14,0,1,0,48.28,0Z" transform="translate(-244.89 -75.89)"/><path class="cls-2" d="M394,315a9.59,9.59,0,1,1-9.59,9.59A9.59,9.59,0,0,1,394,315Z" transform="translate(-244.89 -75.89)"/><path class="cls-2" d="M511.56,325.76a24.14,24.14,0,1,1,0,48.28V325.76Z" transform="translate(-244.89 -75.89)"/><path class="cls-2" d="M475.34,275.1a24.14,24.14,0,1,0,0,48.28V275.1Z" transform="translate(-244.89 -75.89)"/><path class="cls-2" d="M481,275.1a12.07,12.07,0,1,0,24.14,0Z" transform="translate(-244.89 -75.89)"/><path class="cls-2" d="M481,374a12.07,12.07,0,0,1,24.14,0Z" transform="translate(-244.89 -75.89)"/><path class="cls-2" d="M443.59,336.64a12.07,12.07,0,1,0,0-24.14v24.14Z" transform="translate(-244.89 -75.89)"/><path class="cls-2" d="M542.54,336.64a12.07,12.07,0,1,1,0-24.14v24.14Z" transform="translate(-244.89 -75.89)"/><path class="cls-2" d="M494.64,306.46a24.14,24.14,0,0,1,48.28,0Z" transform="translate(-244.89 -75.89)"/><path class="cls-2" d="M444,342.68a24.14,24.14,0,0,0,48.28,0Z" transform="translate(-244.89 -75.89)"/><path class="cls-2" d="M493.26,315a9.59,9.59,0,1,1-9.59,9.59,9.59,9.59,0,0,1,9.59-9.59Z" transform="translate(-244.89 -75.89)"/><path class="cls-2" d="M610.85,325.76a24.14,24.14,0,1,1,0,48.28V325.76Z" transform="translate(-244.89 -75.89)"/><path class="cls-2" d="M574.64,275.1a24.14,24.14,0,1,0,0,48.28V275.1Z" transform="translate(-244.89 -75.89)"/><path class="cls-2" d="M580.29,275.1a12.07,12.07,0,1,0,24.14,0Z" transform="translate(-244.89 -75.89)"/><path class="cls-2" d="M580.29,374a12.07,12.07,0,0,1,24.14,0Z" transform="translate(-244.89 -75.89)"/><path class="cls-2" d="M542.89,336.64a12.07,12.07,0,1,0,0-24.14v24.14Z" transform="translate(-244.89 -75.89)"/><path class="cls-2" d="M641.83,336.64a12.07,12.07,0,0,1,0-24.14v24.14Z" transform="translate(-244.89 -75.89)"/><path class="cls-2" d="M593.93,306.46a24.14,24.14,0,1,1,48.28,0Z" transform="translate(-244.89 -75.89)"/><path class="cls-2" d="M543.27,342.68a24.14,24.14,0,0,0,48.29,0Z" transform="translate(-244.89 -75.89)"/><path class="cls-2" d="M592.55,315a9.59,9.59,0,1,1-9.58,9.59,9.59,9.59,0,0,1,9.58-9.59Z" transform="translate(-244.89 -75.89)"/><path class="cls-2" d="M710.15,325.76a24.14,24.14,0,1,1,0,48.28V325.76Z" transform="translate(-244.89 -75.89)"/><path class="cls-2" d="M673.93,275.1a24.14,24.14,0,1,0,0,48.28V275.1Z" transform="translate(-244.89 -75.89)"/><path class="cls-2" d="M679.59,275.1a12.07,12.07,0,0,0,24.14,0Z" transform="translate(-244.89 -75.89)"/><path class="cls-2" d="M679.59,374a12.07,12.07,0,0,1,24.14,0Z" transform="translate(-244.89 -75.89)"/><path class="cls-2" d="M642.18,336.64a12.07,12.07,0,1,0,0-24.14v24.14Z" transform="translate(-244.89 -75.89)"/><path class="cls-2" d="M741.13,336.64a12.07,12.07,0,1,1,0-24.14v24.14Z" transform="translate(-244.89 -75.89)"/><path class="cls-2" d="M693.23,306.46a24.14,24.14,0,0,1,48.29,0Z" transform="translate(-244.89 -75.89)"/><path class="cls-2" d="M642.57,342.68a24.14,24.14,0,1,0,48.28,0Z" transform="translate(-244.89 -75.89)"/><path class="cls-2" d="M691.85,315a9.59,9.59,0,1,1-9.59,9.59,9.59,9.59,0,0,1,9.59-9.59Z" transform="translate(-244.89 -75.89)"/><path class="cls-2" d="M809.45,325.76a24.14,24.14,0,0,1,0,48.28V325.76Z" transform="translate(-244.89 -75.89)"/><path class="cls-2" d="M773.23,275.1a24.14,24.14,0,1,0,0,48.28V275.1Z" transform="translate(-244.89 -75.89)"/><path class="cls-2" d="M778.89,275.1a12.07,12.07,0,0,0,24.14,0Z" transform="translate(-244.89 -75.89)"/><path class="cls-2" d="M778.89,374A12.07,12.07,0,0,1,803,374Z" transform="translate(-244.89 -75.89)"/><path class="cls-2" d="M741.48,336.64a12.07,12.07,0,1,0,0-24.14v24.14Z" transform="translate(-244.89 -75.89)"/><path class="cls-2" d="M840.43,336.64a12.07,12.07,0,1,1,0-24.14v24.14Z" transform="translate(-244.89 -75.89)"/><path class="cls-2" d="M792.53,306.46a24.14,24.14,0,1,1,48.28,0Z" transform="translate(-244.89 -75.89)"/><path class="cls-2" d="M741.87,342.68a24.14,24.14,0,1,0,48.28,0Z" transform="translate(-244.89 -75.89)"/><path class="cls-2" d="M791.15,315a9.59,9.59,0,1,1-9.59,9.59,9.59,9.59,0,0,1,9.59-9.59Z" transform="translate(-244.89 -75.89)"/><path class="cls-2" d="M908.74,325.76a24.14,24.14,0,1,1,0,48.28V325.76Z" transform="translate(-244.89 -75.89)"/><path class="cls-2" d="M872.53,275.1a24.14,24.14,0,1,0,0,48.28V275.1Z" transform="translate(-244.89 -75.89)"/><path class="cls-2" d="M878.18,275.1a12.07,12.07,0,0,0,24.14,0Z" transform="translate(-244.89 -75.89)"/><path class="cls-2" d="M878.18,374a12.07,12.07,0,0,1,24.14,0Z" transform="translate(-244.89 -75.89)"/><path class="cls-2" d="M840.78,336.64a12.07,12.07,0,1,0,0-24.14v24.14Z" transform="translate(-244.89 -75.89)"/><path class="cls-2" d="M939.72,336.64a12.07,12.07,0,0,1,0-24.14v24.14Z" transform="translate(-244.89 -75.89)"/><path class="cls-2" d="M891.82,306.46a24.14,24.14,0,1,1,48.28,0Z" transform="translate(-244.89 -75.89)"/><path class="cls-2" d="M841.16,342.68a24.14,24.14,0,1,0,48.28,0Z" transform="translate(-244.89 -75.89)"/><path class="cls-2" d="M890.44,315a9.59,9.59,0,1,1-9.59,9.59,9.59,9.59,0,0,1,9.59-9.59Z" transform="translate(-244.89 -75.89)"/><path class="cls-2" d="M313,226.77a24.14,24.14,0,1,1,0,48.28V226.77Z" transform="translate(-244.89 -75.89)"/><path class="cls-2" d="M276.75,176.11a24.14,24.14,0,1,0,0,48.28V176.11Z" transform="translate(-244.89 -75.89)"/><path class="cls-2" d="M282.4,176.11a12.07,12.07,0,0,0,24.14,0Z" transform="translate(-244.89 -75.89)"/><path class="cls-2" d="M282.4,275.06a12.07,12.07,0,1,1,24.14,0Z" transform="translate(-244.89 -75.89)"/><path class="cls-2" d="M245,237.66a12.07,12.07,0,1,0,0-24.14v24.14Z" transform="translate(-244.89 -75.89)"/><path class="cls-2" d="M343.95,237.66a12.07,12.07,0,1,1,0-24.14v24.14Z" transform="translate(-244.89 -75.89)"/><path class="cls-2" d="M296,207.48a24.14,24.14,0,0,1,48.28,0Z" transform="translate(-244.89 -75.89)"/><path class="cls-2" d="M245.38,243.7a24.14,24.14,0,0,0,48.28,0Z" transform="translate(-244.89 -75.89)"/><path class="cls-2" d="M294.66,216a9.59,9.59,0,1,1-9.59,9.59,9.59,9.59,0,0,1,9.59-9.59Z" transform="translate(-244.89 -75.89)"/><path class="cls-2" d="M412.26,226.77a24.14,24.14,0,1,1,0,48.28V226.77Z" transform="translate(-244.89 -75.89)"/><path class="cls-2" d="M376,176.11a24.14,24.14,0,1,0,0,48.28V176.11Z" transform="translate(-244.89 -75.89)"/><path class="cls-2" d="M381.7,176.11a12.07,12.07,0,0,0,24.14,0Z" transform="translate(-244.89 -75.89)"/><path class="cls-2" d="M381.7,275.06a12.07,12.07,0,1,1,24.14,0Z" transform="translate(-244.89 -75.89)"/><path class="cls-2" d="M344.3,237.66a12.07,12.07,0,1,0,0-24.14v24.14Z" transform="translate(-244.89 -75.89)"/><path class="cls-2" d="M443.24,237.66a12.07,12.07,0,1,1,0-24.14v24.14Z" transform="translate(-244.89 -75.89)"/><path class="cls-2" d="M395.34,207.48a24.14,24.14,0,1,1,48.28,0Z" transform="translate(-244.89 -75.89)"/><path class="cls-2" d="M344.68,243.7a24.14,24.14,0,0,0,48.28,0Z" transform="translate(-244.89 -75.89)"/><path class="cls-2" d="M394,216a9.59,9.59,0,1,1-9.59,9.59A9.59,9.59,0,0,1,394,216Z" transform="translate(-244.89 -75.89)"/><path class="cls-2" d="M511.56,226.77a24.14,24.14,0,1,1,0,48.28V226.77Z" transform="translate(-244.89 -75.89)"/><path class="cls-2" d="M475.34,176.11a24.14,24.14,0,1,0,0,48.28V176.11Z" transform="translate(-244.89 -75.89)"/><path class="cls-2" d="M481,176.11a12.07,12.07,0,0,0,24.14,0Z" transform="translate(-244.89 -75.89)"/><path class="cls-2" d="M481,275.06a12.07,12.07,0,1,1,24.14,0Z" transform="translate(-244.89 -75.89)"/><path class="cls-2" d="M443.59,237.66a12.07,12.07,0,1,0,0-24.14v24.14Z" transform="translate(-244.89 -75.89)"/><path class="cls-2" d="M542.54,237.66a12.07,12.07,0,1,1,0-24.14v24.14Z" transform="translate(-244.89 -75.89)"/><path class="cls-2" d="M494.64,207.48a24.14,24.14,0,1,1,48.28,0Z" transform="translate(-244.89 -75.89)"/><path class="cls-2" d="M444,243.7a24.14,24.14,0,0,0,48.28,0Z" transform="translate(-244.89 -75.89)"/><path class="cls-2" d="M493.26,216a9.59,9.59,0,1,1-9.59,9.59,9.59,9.59,0,0,1,9.59-9.59Z" transform="translate(-244.89 -75.89)"/><path class="cls-2" d="M610.85,226.77a24.14,24.14,0,1,1,0,48.28V226.77Z" transform="translate(-244.89 -75.89)"/><path class="cls-2" d="M574.64,176.11a24.14,24.14,0,1,0,0,48.28V176.11Z" transform="translate(-244.89 -75.89)"/><path class="cls-2" d="M580.29,176.11a12.07,12.07,0,0,0,24.14,0Z" transform="translate(-244.89 -75.89)"/><path class="cls-2" d="M580.29,275.06a12.07,12.07,0,1,1,24.14,0Z" transform="translate(-244.89 -75.89)"/><path class="cls-2" d="M542.89,237.66a12.07,12.07,0,1,0,0-24.14v24.14Z" transform="translate(-244.89 -75.89)"/><path class="cls-2" d="M641.83,237.66a12.07,12.07,0,0,1,0-24.14v24.14Z" transform="translate(-244.89 -75.89)"/><path class="cls-2" d="M593.93,207.48a24.14,24.14,0,1,1,48.28,0Z" transform="translate(-244.89 -75.89)"/><path class="cls-2" d="M543.27,243.7a24.14,24.14,0,0,0,48.29,0Z" transform="translate(-244.89 -75.89)"/><path class="cls-2" d="M592.55,216a9.59,9.59,0,1,1-9.58,9.59,9.59,9.59,0,0,1,9.58-9.59Z" transform="translate(-244.89 -75.89)"/><path class="cls-2" d="M710.15,226.77a24.14,24.14,0,1,1,0,48.28V226.77Z" transform="translate(-244.89 -75.89)"/><path class="cls-2" d="M673.93,176.11a24.14,24.14,0,1,0,0,48.28V176.11Z" transform="translate(-244.89 -75.89)"/><path class="cls-2" d="M679.59,176.11a12.07,12.07,0,0,0,24.14,0Z" transform="translate(-244.89 -75.89)"/><path class="cls-2" d="M679.59,275.06a12.07,12.07,0,0,1,24.14,0Z" transform="translate(-244.89 -75.89)"/><path class="cls-2" d="M642.18,237.66a12.07,12.07,0,1,0,0-24.14v24.14Z" transform="translate(-244.89 -75.89)"/><path class="cls-2" d="M741.13,237.66a12.07,12.07,0,1,1,0-24.14v24.14Z" transform="translate(-244.89 -75.89)"/><path class="cls-2" d="M693.23,207.48a24.14,24.14,0,0,1,48.29,0Z" transform="translate(-244.89 -75.89)"/><path class="cls-2" d="M642.57,243.7a24.14,24.14,0,1,0,48.28,0Z" transform="translate(-244.89 -75.89)"/><path class="cls-2" d="M691.85,216a9.59,9.59,0,1,1-9.59,9.59,9.59,9.59,0,0,1,9.59-9.59Z" transform="translate(-244.89 -75.89)"/><path class="cls-2" d="M809.45,226.77a24.14,24.14,0,0,1,0,48.28V226.77Z" transform="translate(-244.89 -75.89)"/><path class="cls-2" d="M773.23,176.11a24.14,24.14,0,1,0,0,48.28V176.11Z" transform="translate(-244.89 -75.89)"/><path class="cls-2" d="M778.89,176.11a12.07,12.07,0,0,0,24.14,0Z" transform="translate(-244.89 -75.89)"/><path class="cls-2" d="M778.89,275.06a12.07,12.07,0,0,1,24.14,0Z" transform="translate(-244.89 -75.89)"/><path class="cls-2" d="M741.48,237.66a12.07,12.07,0,1,0,0-24.14v24.14Z" transform="translate(-244.89 -75.89)"/><path class="cls-2" d="M840.43,237.66a12.07,12.07,0,1,1,0-24.14v24.14Z" transform="translate(-244.89 -75.89)"/><path class="cls-2" d="M792.53,207.48a24.14,24.14,0,1,1,48.28,0Z" transform="translate(-244.89 -75.89)"/><path class="cls-2" d="M741.87,243.7a24.14,24.14,0,1,0,48.28,0Z" transform="translate(-244.89 -75.89)"/><path class="cls-2" d="M791.15,216a9.59,9.59,0,1,1-9.59,9.59,9.59,9.59,0,0,1,9.59-9.59Z" transform="translate(-244.89 -75.89)"/><path class="cls-2" d="M908.74,226.77a24.14,24.14,0,1,1,0,48.28V226.77Z" transform="translate(-244.89 -75.89)"/><path class="cls-2" d="M872.53,176.11a24.14,24.14,0,1,0,0,48.28V176.11Z" transform="translate(-244.89 -75.89)"/><path class="cls-2" d="M878.18,176.11a12.07,12.07,0,0,0,24.14,0Z" transform="translate(-244.89 -75.89)"/><path class="cls-2" d="M878.18,275.06a12.07,12.07,0,0,1,24.14,0Z" transform="translate(-244.89 -75.89)"/><path class="cls-2" d="M840.78,237.66a12.07,12.07,0,1,0,0-24.14v24.14Z" transform="translate(-244.89 -75.89)"/><path class="cls-2" d="M939.72,237.66a12.07,12.07,0,0,1,0-24.14v24.14Z" transform="translate(-244.89 -75.89)"/><path class="cls-2" d="M891.82,207.48a24.14,24.14,0,1,1,48.28,0Z" transform="translate(-244.89 -75.89)"/><path class="cls-2" d="M841.16,243.7a24.14,24.14,0,1,0,48.28,0Z" transform="translate(-244.89 -75.89)"/><path class="cls-2" d="M890.44,216a9.59,9.59,0,1,1-9.59,9.59,9.59,9.59,0,0,1,9.59-9.59Z" transform="translate(-244.89 -75.89)"/><path class="cls-2" d="M313,127.79a24.14,24.14,0,1,1,0,48.28V127.79Z" transform="translate(-244.89 -75.89)"/><path class="cls-2" d="M276.75,77.13a24.14,24.14,0,1,0,0,48.28V77.13Z" transform="translate(-244.89 -75.89)"/><path class="cls-2" d="M282.4,77.13a12.07,12.07,0,0,0,24.14,0Z" transform="translate(-244.89 -75.89)"/><path class="cls-2" d="M282.4,176.08a12.07,12.07,0,0,1,24.14,0Z" transform="translate(-244.89 -75.89)"/><path class="cls-2" d="M245,138.67a12.07,12.07,0,1,0,0-24.14v24.14Z" transform="translate(-244.89 -75.89)"/><path class="cls-2" d="M343.95,138.67a12.07,12.07,0,0,1,0-24.14v24.14Z" transform="translate(-244.89 -75.89)"/><path class="cls-2" d="M296,108.49a24.14,24.14,0,1,1,48.28,0Z" transform="translate(-244.89 -75.89)"/><path class="cls-2" d="M245.38,144.71a24.14,24.14,0,1,0,48.28,0Z" transform="translate(-244.89 -75.89)"/><path class="cls-2" d="M294.66,117a9.59,9.59,0,1,1-9.59,9.59,9.59,9.59,0,0,1,9.59-9.59Z" transform="translate(-244.89 -75.89)"/><path class="cls-2" d="M412.26,127.79a24.14,24.14,0,1,1,0,48.28V127.79Z" transform="translate(-244.89 -75.89)"/><path class="cls-2" d="M376,77.13a24.14,24.14,0,1,0,0,48.28V77.13Z" transform="translate(-244.89 -75.89)"/><path class="cls-2" d="M381.7,77.13a12.07,12.07,0,0,0,24.14,0Z" transform="translate(-244.89 -75.89)"/><path class="cls-2" d="M381.7,176.08a12.07,12.07,0,0,1,24.14,0Z" transform="translate(-244.89 -75.89)"/><path class="cls-2" d="M344.3,138.67a12.07,12.07,0,1,0,0-24.14v24.14Z" transform="translate(-244.89 -75.89)"/><path class="cls-2" d="M443.24,138.67a12.07,12.07,0,1,1,0-24.14v24.14Z" transform="translate(-244.89 -75.89)"/><path class="cls-2" d="M395.34,108.49a24.14,24.14,0,1,1,48.28,0Z" transform="translate(-244.89 -75.89)"/><path class="cls-2" d="M344.68,144.71a24.14,24.14,0,1,0,48.28,0Z" transform="translate(-244.89 -75.89)"/><path class="cls-2" d="M394,117a9.59,9.59,0,1,1-9.59,9.59A9.59,9.59,0,0,1,394,117Z" transform="translate(-244.89 -75.89)"/><path class="cls-2" d="M511.56,127.79a24.14,24.14,0,1,1,0,48.28V127.79Z" transform="translate(-244.89 -75.89)"/><path class="cls-2" d="M475.34,77.13a24.14,24.14,0,1,0,0,48.28V77.13Z" transform="translate(-244.89 -75.89)"/><path class="cls-2" d="M481,77.13a12.07,12.07,0,1,0,24.14,0Z" transform="translate(-244.89 -75.89)"/><path class="cls-2" d="M481,176.08a12.07,12.07,0,0,1,24.14,0Z" transform="translate(-244.89 -75.89)"/><path class="cls-2" d="M443.59,138.67a12.07,12.07,0,1,0,0-24.14v24.14Z" transform="translate(-244.89 -75.89)"/><path class="cls-2" d="M542.54,138.67a12.07,12.07,0,1,1,0-24.14v24.14Z" transform="translate(-244.89 -75.89)"/><path class="cls-2" d="M494.64,108.49a24.14,24.14,0,1,1,48.28,0Z" transform="translate(-244.89 -75.89)"/><path class="cls-2" d="M444,144.71a24.14,24.14,0,1,0,48.28,0Z" transform="translate(-244.89 -75.89)"/><path class="cls-2" d="M493.26,117a9.59,9.59,0,1,1-9.59,9.59,9.59,9.59,0,0,1,9.59-9.59Z" transform="translate(-244.89 -75.89)"/><path class="cls-2" d="M610.85,127.79a24.14,24.14,0,1,1,0,48.28V127.79Z" transform="translate(-244.89 -75.89)"/><path class="cls-2" d="M574.64,77.13a24.14,24.14,0,1,0,0,48.28V77.13Z" transform="translate(-244.89 -75.89)"/><path class="cls-2" d="M580.29,77.13a12.07,12.07,0,1,0,24.14,0Z" transform="translate(-244.89 -75.89)"/><path class="cls-2" d="M580.29,176.08a12.07,12.07,0,0,1,24.14,0Z" transform="translate(-244.89 -75.89)"/><path class="cls-2" d="M542.89,138.67a12.07,12.07,0,1,0,0-24.14v24.14Z" transform="translate(-244.89 -75.89)"/><path class="cls-2" d="M641.83,138.67a12.07,12.07,0,0,1,0-24.14v24.14Z" transform="translate(-244.89 -75.89)"/><path class="cls-2" d="M593.93,108.49a24.14,24.14,0,1,1,48.28,0Z" transform="translate(-244.89 -75.89)"/><path class="cls-2" d="M543.27,144.71a24.14,24.14,0,0,0,48.29,0Z" transform="translate(-244.89 -75.89)"/><path class="cls-2" d="M592.55,117A9.59,9.59,0,1,1,583,126.6a9.59,9.59,0,0,1,9.58-9.59Z" transform="translate(-244.89 -75.89)"/><path class="cls-2" d="M710.15,127.79a24.14,24.14,0,1,1,0,48.28V127.79Z" transform="translate(-244.89 -75.89)"/><path class="cls-2" d="M673.93,77.13a24.14,24.14,0,1,0,0,48.28V77.13Z" transform="translate(-244.89 -75.89)"/><path class="cls-2" d="M679.59,77.13a12.07,12.07,0,0,0,24.14,0Z" transform="translate(-244.89 -75.89)"/><path class="cls-2" d="M679.59,176.08a12.07,12.07,0,0,1,24.14,0Z" transform="translate(-244.89 -75.89)"/><path class="cls-2" d="M642.18,138.67a12.07,12.07,0,1,0,0-24.14v24.14Z" transform="translate(-244.89 -75.89)"/><path class="cls-2" d="M741.13,138.67a12.07,12.07,0,1,1,0-24.14v24.14Z" transform="translate(-244.89 -75.89)"/><path class="cls-2" d="M693.23,108.49a24.14,24.14,0,0,1,48.29,0Z" transform="translate(-244.89 -75.89)"/><path class="cls-2" d="M642.57,144.71a24.14,24.14,0,1,0,48.28,0Z" transform="translate(-244.89 -75.89)"/><path class="cls-2" d="M691.85,117a9.59,9.59,0,1,1-9.59,9.59,9.59,9.59,0,0,1,9.59-9.59Z" transform="translate(-244.89 -75.89)"/><path class="cls-2" d="M809.45,127.79a24.14,24.14,0,0,1,0,48.28V127.79Z" transform="translate(-244.89 -75.89)"/><path class="cls-2" d="M773.23,77.13a24.14,24.14,0,1,0,0,48.28V77.13Z" transform="translate(-244.89 -75.89)"/><path class="cls-2" d="M778.89,77.13a12.07,12.07,0,0,0,24.14,0Z" transform="translate(-244.89 -75.89)"/><path class="cls-2" d="M778.89,176.08a12.07,12.07,0,0,1,24.14,0Z" transform="translate(-244.89 -75.89)"/><path class="cls-2" d="M741.48,138.67a12.07,12.07,0,1,0,0-24.14v24.14Z" transform="translate(-244.89 -75.89)"/><path class="cls-2" d="M840.43,138.67a12.07,12.07,0,1,1,0-24.14v24.14Z" transform="translate(-244.89 -75.89)"/><path class="cls-2" d="M792.53,108.49a24.14,24.14,0,1,1,48.28,0Z" transform="translate(-244.89 -75.89)"/><path class="cls-2" d="M741.87,144.71a24.14,24.14,0,1,0,48.28,0Z" transform="translate(-244.89 -75.89)"/><path class="cls-2" d="M791.15,117a9.59,9.59,0,1,1-9.59,9.59,9.59,9.59,0,0,1,9.59-9.59Z" transform="translate(-244.89 -75.89)"/><path class="cls-2" d="M908.74,127.79a24.14,24.14,0,1,1,0,48.28V127.79Z" transform="translate(-244.89 -75.89)"/><path class="cls-2" d="M872.53,77.13a24.14,24.14,0,1,0,0,48.28V77.13Z" transform="translate(-244.89 -75.89)"/><path class="cls-2" d="M878.18,77.13a12.07,12.07,0,0,0,24.14,0Z" transform="translate(-244.89 -75.89)"/><path class="cls-2" d="M878.18,176.08a12.07,12.07,0,0,1,24.14,0Z" transform="translate(-244.89 -75.89)"/><path class="cls-2" d="M840.78,138.67a12.07,12.07,0,1,0,0-24.14v24.14Z" transform="translate(-244.89 -75.89)"/><path class="cls-2" d="M939.72,138.67a12.07,12.07,0,0,1,0-24.14v24.14Z" transform="translate(-244.89 -75.89)"/><path class="cls-2" d="M891.82,108.49a24.14,24.14,0,1,1,48.28,0Z" transform="translate(-244.89 -75.89)"/><path class="cls-2" d="M841.16,144.71a24.14,24.14,0,1,0,48.28,0Z" transform="translate(-244.89 -75.89)"/><path class="cls-2" d="M890.44,117a9.59,9.59,0,1,1-9.59,9.59,9.59,9.59,0,0,1,9.59-9.59Z" transform="translate(-244.89 -75.89)"/></svg>